# xmcd
#
# Track frame offsets: 
#        150
#        14337
#        32544
#        53344
#        87602
#        100689
#        117318
#        136272
#        171788
#        186954
#        204193
#
# Disc length: 2913 seconds
#
# Revision: 0
# Processed by: cddbd v1.5.2PL0 Copyright (c) Steve Scherf et al.
# Submitted via: ExactAudioCopyFreeDBPlugin 1.0
#
DISCID=850b5f0b
DTITLE=Talking Blues - Listen
DYEAR=2010
DGENRE=Blues
TTITLE0=I Wanna Hug You
TTITLE1=If You Be My Baby
TTITLE2=Little Queenie
TTITLE3=Don´t Think Twice
TTITLE4=I´m Ready
TTITLE5=Room To Move
TTITLE6=Born Under A Bad Sign
TTITLE7=Stormy Monday
TTITLE8=Ridin´on The L&N
TTITLE9=Need Your Love So Bad
TTITLE10=Juniors Wailing
EXTD=
EXTT0=
EXTT1=
EXTT2=
EXTT3=
EXTT4=
EXTT5=
EXTT6=
EXTT7=
EXTT8=
EXTT9=
EXTT10=
PLAYORDER=
